<?xml version="1.0" encoding="utf-8"?>
<!-- Generator: Adobe Illustrator 15.0.2, SVG Export Plug-In . SVG Version: 6.00 Build 0)  -->
<!DOCTYPE svg PUBLIC "-//W3C//DTD SVG 1.1//EN" "http://www.w3.org/Graphics/SVG/1.1/DTD/svg11.dtd">
<svg version="1.1" id="Calque_1" xmlns="http://www.w3.org/2000/svg" xmlns:xlink="http://www.w3.org/1999/xlink" x="0px" y="0px"
	 width="36px" height="432px" viewBox="0 0 36 432" enable-background="new 0 0 36 432" xml:space="preserve">
<g>
	<g id="_x31_2">
		<path opacity="0.36" fill="#607D8B" enable-background="new    " d="M33.997,414.452l-8.004-0.043
			c-0.059,1.127-0.346,2.195-0.826,3.148l6.93,4.026C33.245,419.45,33.927,417.028,33.997,414.452z"/>
		<path opacity="0.27" fill="#607D8B" enable-background="new    " d="M32.149,406.516l-6.961,3.969
			c0.471,0.961,0.754,2.027,0.805,3.154l8.008,0.022C33.944,411.081,33.284,408.653,32.149,406.516z"/>
		<path opacity="0.63" fill="#607D8B" enable-background="new    " d="M14.384,421.139l-4.026,6.928
			c2.146,1.166,4.588,1.857,7.183,1.93l0.047-8.006C16.441,421.932,15.354,421.633,14.384,421.139z"/>
		<path opacity="0.18" fill="#607D8B" enable-background="new    " d="M24.817,409.811l6.943-3.982
			c-1.293-2.176-3.086-4.018-5.228-5.366l-4.042,6.92C23.431,408.016,24.224,408.846,24.817,409.811z"/>
		<path opacity="0.81" fill="#607D8B" enable-background="new    " d="M10.933,417.754c-0.531-1.004-0.861-2.131-0.924-3.326
			L2,414.405c0.065,2.646,0.775,5.135,1.976,7.312L10.933,417.754z"/>
		<path opacity="0.9" fill="#607D8B" enable-background="new    " d="M10.904,410.303l-6.927-4.023
			c-1.202,2.185-1.914,4.678-1.977,7.332l8.006,0.043C10.058,412.448,10.375,411.317,10.904,410.303z"/>
		<path opacity="0.09" fill="#607D8B" enable-background="new    " d="M21.834,406.977l4.021-6.922
			c-2.154-1.219-4.623-1.947-7.25-2.045l-0.041,8.01C19.742,406.106,20.849,406.436,21.834,406.977z"/>
		<path opacity="0.54" fill="#607D8B" enable-background="new    " d="M21.632,421.133c-0.994,0.504-2.101,0.813-3.279,0.858
			L18.331,430c2.628-0.054,5.1-0.736,7.268-1.912L21.632,421.133z"/>
		<path opacity="0.45" fill="#607D8B" enable-background="new    " d="M31.624,422.401l-6.913-4.041
			c-0.625,0.959-1.442,1.773-2.407,2.387l3.984,6.949C28.46,426.375,30.288,424.557,31.624,422.401z"/>
		<path opacity="0.71" fill="#607D8B" enable-background="new    " d="M11.332,418.422l-6.95,3.983
			c1.327,2.144,3.144,3.951,5.295,5.265l4.037-6.914C12.769,420.153,11.951,419.358,11.332,418.422z"/>
		<path fill="#607D8B" d="M4.376,405.602l6.913,4.041c0.624-0.959,1.449-1.773,2.407-2.387l-3.984-6.949
			C7.539,401.62,5.712,403.444,4.376,405.602z"/>
		<path fill="#607D8B" fill-opacity="0" d="M14.368,406.868c0.988-0.506,2.102-0.813,3.279-0.86L17.666,398
			c-2.625,0.055-5.096,0.737-7.263,1.913L14.368,406.868z"/>
	</g>
	<g id="_x31_1">
		<path opacity="0.45" fill="#607D8B" enable-background="new    " d="M33.997,378.452l-8.004-0.045
			c-0.059,1.127-0.346,2.197-0.826,3.152l6.93,4.027C33.245,383.452,33.927,381.03,33.997,378.452z"/>
		<path opacity="0.36" fill="#607D8B" enable-background="new    " d="M32.149,370.518l-6.961,3.969
			c0.471,0.961,0.754,2.025,0.805,3.154l8.008,0.021C33.944,375.081,33.284,372.655,32.149,370.518z"/>
		<path opacity="0.71" fill="#607D8B" enable-background="new    " d="M14.384,385.141l-4.026,6.924
			c2.146,1.17,4.588,1.861,7.183,1.932l0.047-8.004C16.441,385.934,15.354,385.633,14.384,385.141z"/>
		<path opacity="0.27" fill="#607D8B" enable-background="new    " d="M24.817,373.813l6.943-3.982
			c-1.293-2.176-3.086-4.018-5.228-5.366l-4.042,6.918C23.431,372.016,24.224,372.846,24.817,373.813z"/>
		<path opacity="0.9" fill="#607D8B" enable-background="new    " d="M10.933,381.752c-0.531-1-0.861-2.127-0.924-3.322L2,378.406
			c0.065,2.646,0.775,5.135,1.976,7.312L10.933,381.752z"/>
		<path fill="#607D8B" d="M10.904,374.305l-6.927-4.023c-1.202,2.185-1.914,4.678-1.977,7.332l8.006,0.041
			C10.058,376.45,10.375,375.315,10.904,374.305z"/>
		<path opacity="0.18" fill="#607D8B" enable-background="new    " d="M21.834,370.979l4.021-6.924
			c-2.154-1.217-4.623-1.947-7.25-2.043l-0.041,8.01C19.742,370.108,20.849,370.438,21.834,370.979z"/>
		<path opacity="0.63" fill="#607D8B" enable-background="new    " d="M21.632,385.133c-0.994,0.506-2.101,0.813-3.279,0.86
			L18.331,394c2.628-0.052,5.1-0.736,7.268-1.91L21.632,385.133z"/>
		<path opacity="0.54" fill="#607D8B" enable-background="new    " d="M31.624,386.403l-6.913-4.041
			c-0.625,0.955-1.442,1.773-2.407,2.387l3.984,6.949C28.46,390.375,30.288,388.559,31.624,386.403z"/>
		<path opacity="0.81" fill="#607D8B" enable-background="new    " d="M11.332,382.424l-6.95,3.983
			c1.327,2.144,3.144,3.949,5.295,5.263l4.037-6.916C12.769,384.155,11.951,383.36,11.332,382.424z"/>
		<path fill="#607D8B" fill-opacity="0" d="M4.376,369.604l6.913,4.041c0.624-0.959,1.449-1.773,2.407-2.389l-3.984-6.947
			C7.539,365.622,5.712,367.442,4.376,369.604z"/>
		<path opacity="0.09" fill="#607D8B" enable-background="new    " d="M14.368,370.87c0.988-0.506,2.102-0.813,3.279-0.86
			l0.019-8.011c-2.625,0.058-5.096,0.74-7.263,1.916L14.368,370.87z"/>
	</g>
	<g id="_x31_0">
		<path opacity="0.54" fill="#607D8B" enable-background="new    " d="M33.997,342.452l-8.004-0.045
			c-0.059,1.127-0.346,2.197-0.826,3.152l6.93,4.027C33.245,347.452,33.927,345.03,33.997,342.452z"/>
		<path opacity="0.45" fill="#607D8B" enable-background="new    " d="M32.149,334.518l-6.961,3.969
			c0.471,0.955,0.754,2.025,0.805,3.154l8.008,0.02C33.944,339.081,33.284,336.655,32.149,334.518z"/>
		<path opacity="0.81" fill="#607D8B" enable-background="new    " d="M14.384,349.139l-4.026,6.926
			c2.146,1.17,4.588,1.861,7.183,1.932l0.047-8.004C16.441,349.934,15.354,349.629,14.384,349.139z"/>
		<path opacity="0.36" fill="#607D8B" enable-background="new    " d="M24.817,337.813l6.943-3.982
			c-1.293-2.176-3.086-4.02-5.228-5.366l-4.042,6.916C23.431,336.016,24.224,336.846,24.817,337.813z"/>
		<path fill="#607D8B" d="M10.933,345.752c-0.531-1.002-0.861-2.127-0.924-3.322L2,342.406c0.065,2.646,0.775,5.131,1.976,7.31
			L10.933,345.752z"/>
		<path fill="#607D8B" fill-opacity="0" d="M10.904,338.305l-6.927-4.023c-1.202,2.183-1.914,4.679-1.977,7.33l8.006,0.043
			C10.058,340.45,10.375,339.315,10.904,338.305z"/>
		<path opacity="0.27" fill="#607D8B" enable-background="new    " d="M21.834,334.975l4.021-6.92
			c-2.154-1.217-4.623-1.947-7.25-2.043l-0.041,8.01C19.742,334.106,20.849,334.438,21.834,334.975z"/>
		<path opacity="0.71" fill="#607D8B" enable-background="new    " d="M21.632,349.129c-0.994,0.51-2.101,0.813-3.279,0.864
			L18.331,358c2.628-0.052,5.1-0.736,7.268-1.91L21.632,349.129z"/>
		<path opacity="0.63" fill="#607D8B" enable-background="new    " d="M31.624,350.403l-6.913-4.041
			c-0.625,0.955-1.442,1.771-2.407,2.385l3.984,6.947C28.46,354.375,30.288,352.559,31.624,350.403z"/>
		<path opacity="0.9" fill="#607D8B" enable-background="new    " d="M11.332,346.424l-6.95,3.983
			c1.327,2.144,3.144,3.949,5.295,5.263l4.037-6.916C12.769,348.155,11.951,347.358,11.332,346.424z"/>
		<path opacity="0.09" fill="#607D8B" enable-background="new    " d="M4.376,333.6l6.913,4.045
			c0.624-0.959,1.449-1.775,2.407-2.391l-3.984-6.945C7.539,329.622,5.712,331.44,4.376,333.6z"/>
		<path opacity="0.18" fill="#607D8B" enable-background="new    " d="M14.368,334.87c0.988-0.506,2.102-0.813,3.279-0.86
			l0.019-8.01c-2.625,0.055-5.096,0.739-7.263,1.911L14.368,334.87z"/>
	</g>
	<g id="_x30_9">
		<path opacity="0.63" fill="#607D8B" enable-background="new    " d="M33.997,306.452l-8.004-0.045
			c-0.059,1.127-0.346,2.197-0.826,3.152l6.93,4.025C33.245,311.452,33.927,309.028,33.997,306.452z"/>
		<path opacity="0.54" fill="#607D8B" enable-background="new    " d="M32.149,298.518l-6.961,3.969
			c0.471,0.955,0.754,2.023,0.805,3.152l8.008,0.021C33.944,303.081,33.284,300.655,32.149,298.518z"/>
		<path opacity="0.9" fill="#607D8B" enable-background="new    " d="M14.384,313.139l-4.026,6.926
			c2.146,1.17,4.588,1.861,7.183,1.932l0.047-8.004C16.441,313.934,15.354,313.629,14.384,313.139z"/>
		<path opacity="0.45" fill="#607D8B" enable-background="new    " d="M24.817,301.813l6.943-3.982
			c-1.293-2.176-3.086-4.02-5.228-5.366l-4.042,6.916C23.431,300.016,24.224,300.844,24.817,301.813z"/>
		<path fill="#607D8B" fill-opacity="0" d="M10.933,309.752c-0.531-1.002-0.861-2.127-0.924-3.322L2,306.406
			c0.065,2.646,0.775,5.131,1.976,7.31L10.933,309.752z"/>
		<path opacity="0.09" fill="#607D8B" enable-background="new    " d="M10.904,302.305l-6.927-4.023
			c-1.202,2.183-1.914,4.679-1.977,7.33l8.006,0.043C10.058,304.45,10.375,303.315,10.904,302.305z"/>
		<path opacity="0.36" fill="#607D8B" enable-background="new    " d="M21.834,298.973l4.021-6.918
			c-2.154-1.217-4.623-1.947-7.25-2.047l-0.041,8.014C19.742,298.106,20.849,298.438,21.834,298.973z"/>
		<path opacity="0.81" fill="#607D8B" enable-background="new    " d="M21.632,313.129c-0.994,0.51-2.101,0.813-3.279,0.864
			L18.331,322c2.628-0.056,5.1-0.736,7.268-1.91L21.632,313.129z"/>
		<path opacity="0.71" fill="#607D8B" enable-background="new    " d="M31.624,314.403l-6.913-4.041
			c-0.625,0.955-1.442,1.771-2.407,2.385l3.984,6.947C28.46,318.375,30.288,316.559,31.624,314.403z"/>
		<path fill="#607D8B" d="M11.332,310.424l-6.95,3.983c1.327,2.144,3.144,3.949,5.295,5.263l4.037-6.918
			C12.769,312.155,11.951,311.358,11.332,310.424z"/>
		<path opacity="0.18" fill="#607D8B" enable-background="new    " d="M4.376,297.598l6.913,4.045
			c0.624-0.957,1.449-1.773,2.407-2.389l-3.984-6.947C7.539,293.622,5.712,295.44,4.376,297.598z"/>
		<path opacity="0.27" fill="#607D8B" enable-background="new    " d="M14.368,298.87c0.988-0.506,2.102-0.813,3.279-0.864
			L17.666,290c-2.625,0.055-5.096,0.739-7.263,1.911L14.368,298.87z"/>
	</g>
	<g id="_x30_8">
		<path opacity="0.71" fill="#607D8B" enable-background="new    " d="M33.997,270.452l-8.004-0.045
			c-0.059,1.125-0.346,2.193-0.826,3.152l6.93,4.025C33.245,275.452,33.927,273.028,33.997,270.452z"/>
		<path opacity="0.63" fill="#607D8B" enable-background="new    " d="M32.149,262.518l-6.961,3.969
			c0.471,0.955,0.754,2.021,0.805,3.152l8.008,0.02C33.944,267.081,33.284,264.653,32.149,262.518z"/>
		<path fill="#607D8B" d="M14.384,277.137l-4.026,6.928c2.146,1.17,4.588,1.859,7.183,1.932l0.047-8.004
			C16.441,277.932,15.354,277.629,14.384,277.137z"/>
		<path opacity="0.54" fill="#607D8B" enable-background="new    " d="M24.817,265.813l6.943-3.982
			c-1.293-2.178-3.086-4.02-5.228-5.366l-4.042,6.916C23.431,264.016,24.224,264.844,24.817,265.813z"/>
		<path opacity="0.09" fill="#607D8B" enable-background="new    " d="M10.933,273.752c-0.531-1.002-0.861-2.127-0.924-3.322
			L2,270.406c0.065,2.646,0.775,5.131,1.976,7.31L10.933,273.752z"/>
		<path opacity="0.18" fill="#607D8B" enable-background="new    " d="M10.904,266.305l-6.927-4.023
			c-1.202,2.183-1.914,4.676-1.977,7.33l8.006,0.043C10.058,268.448,10.375,267.315,10.904,266.305z"/>
		<path opacity="0.45" fill="#607D8B" enable-background="new    " d="M21.834,262.973l4.021-6.918
			c-2.154-1.217-4.623-1.951-7.25-2.047l-0.041,8.014C19.742,262.102,20.849,262.438,21.834,262.973z"/>
		<path opacity="0.9" fill="#607D8B" enable-background="new    " d="M21.632,277.129c-0.994,0.506-2.101,0.813-3.279,0.864
			L18.331,286c2.628-0.056,5.1-0.74,7.268-1.912L21.632,277.129z"/>
		<path opacity="0.81" fill="#607D8B" enable-background="new    " d="M31.624,278.401l-6.913-4.041
			c-0.625,0.955-1.442,1.771-2.407,2.387l3.984,6.945C28.46,282.375,30.288,280.557,31.624,278.401z"/>
		<path fill="#607D8B" fill-opacity="0" d="M11.332,274.422l-6.95,3.985c1.327,2.144,3.144,3.949,5.295,5.258l4.037-6.913
			C12.769,276.155,11.951,275.358,11.332,274.422z"/>
		<path opacity="0.27" fill="#607D8B" enable-background="new    " d="M4.376,261.598l6.913,4.045
			c0.624-0.959,1.449-1.773,2.407-2.389l-3.984-6.947C7.539,257.622,5.712,259.44,4.376,261.598z"/>
		<path opacity="0.36" fill="#607D8B" enable-background="new    " d="M14.368,262.87c0.988-0.506,2.102-0.813,3.279-0.864
			L17.666,254c-2.625,0.055-5.096,0.739-7.263,1.909L14.368,262.87z"/>
	</g>
	<g id="_x30_7">
		<path opacity="0.81" fill="#607D8B" enable-background="new    " d="M33.997,234.448l-8.004-0.041
			c-0.059,1.125-0.346,2.193-0.826,3.152l6.93,4.025C33.245,239.448,33.927,237.028,33.997,234.448z"/>
		<path opacity="0.71" fill="#607D8B" enable-background="new    " d="M32.149,226.516l-6.961,3.969
			c0.471,0.957,0.754,2.023,0.805,3.15l8.008,0.022C33.944,231.081,33.284,228.653,32.149,226.516z"/>
		<path fill="#607D8B" fill-opacity="0" d="M14.384,241.135l-4.026,6.928c2.146,1.166,4.588,1.861,7.183,1.934l0.047-8.006
			C16.441,241.932,15.354,241.629,14.384,241.135z"/>
		<path opacity="0.63" fill="#607D8B" enable-background="new    " d="M24.817,229.811l6.943-3.982
			c-1.293-2.176-3.086-4.018-5.228-5.366l-4.042,6.916C23.431,228.012,24.224,228.844,24.817,229.811z"/>
		<path opacity="0.18" fill="#607D8B" enable-background="new    " d="M10.933,237.752c-0.531-1.002-0.861-2.13-0.924-3.322
			L2,234.405c0.065,2.646,0.775,5.131,1.976,7.312L10.933,237.752z"/>
		<path opacity="0.27" fill="#607D8B" enable-background="new    " d="M10.904,230.305l-6.927-4.023
			c-1.202,2.183-1.914,4.676-1.977,7.33l8.006,0.043C10.058,232.448,10.375,231.315,10.904,230.305z"/>
		<path opacity="0.54" fill="#607D8B" enable-background="new    " d="M21.834,226.973l4.021-6.918
			c-2.154-1.219-4.623-1.951-7.25-2.047l-0.041,8.012C19.742,226.102,20.849,226.438,21.834,226.973z"/>
		<path fill="#607D8B" d="M21.632,241.129c-0.994,0.504-2.101,0.813-3.279,0.864L18.331,250c2.628-0.056,5.1-0.74,7.268-1.912
			L21.632,241.129z"/>
		<path opacity="0.9" fill="#607D8B" enable-background="new    " d="M31.624,242.401l-6.913-4.041
			c-0.625,0.955-1.442,1.771-2.407,2.387l3.984,6.945C28.46,246.375,30.288,244.557,31.624,242.401z"/>
		<path opacity="0.09" fill="#607D8B" enable-background="new    " d="M11.332,238.422l-6.95,3.983
			c1.327,2.144,3.144,3.947,5.295,5.261l4.037-6.914C12.769,240.155,11.951,239.354,11.332,238.422z"/>
		<path opacity="0.36" fill="#607D8B" enable-background="new    " d="M4.376,225.598l6.913,4.045
			c0.624-0.959,1.449-1.773,2.407-2.391l-3.984-6.945C7.539,221.62,5.712,223.44,4.376,225.598z"/>
		<path opacity="0.45" fill="#607D8B" enable-background="new    " d="M14.368,226.87c0.988-0.508,2.102-0.813,3.279-0.864
			L17.666,218c-2.625,0.055-5.096,0.739-7.263,1.909L14.368,226.87z"/>
	</g>
	<g id="_x30_6">
		<path opacity="0.9" fill="#607D8B" enable-background="new    " d="M33.997,198.448l-8.004-0.043
			c-0.059,1.127-0.346,2.195-0.826,3.152l6.93,4.027C33.245,203.448,33.927,201.028,33.997,198.448z"/>
		<path opacity="0.81" fill="#607D8B" enable-background="new    " d="M32.149,190.512l-6.961,3.969
			c0.471,0.961,0.754,2.027,0.805,3.154l8.008,0.022C33.944,195.081,33.284,192.653,32.149,190.512z"/>
		<path opacity="0.09" fill="#607D8B" enable-background="new    " d="M14.384,205.135l-4.026,6.928
			c2.146,1.166,4.588,1.861,7.183,1.934l0.047-8.006C16.441,205.932,15.354,205.629,14.384,205.135z"/>
		<path opacity="0.71" fill="#607D8B" enable-background="new    " d="M24.817,193.811l6.943-3.986
			c-1.293-2.172-3.086-4.014-5.228-5.362l-4.042,6.916C23.431,192.012,24.224,192.844,24.817,193.811z"/>
		<path opacity="0.27" fill="#607D8B" enable-background="new    " d="M10.933,201.75c-0.531-1-0.861-2.128-0.924-3.322L2,198.405
			c0.065,2.646,0.775,5.131,1.976,7.312L10.933,201.75z"/>
		<path opacity="0.36" fill="#607D8B" enable-background="new    " d="M10.904,194.303l-6.927-4.023
			c-1.202,2.185-1.914,4.678-1.977,7.328l8.006,0.047C10.058,196.446,10.375,195.315,10.904,194.303z"/>
		<path opacity="0.63" fill="#607D8B" enable-background="new    " d="M21.834,190.973l4.021-6.918
			c-2.154-1.219-4.623-1.951-7.25-2.049l-0.041,8.014C19.742,190.102,20.849,190.436,21.834,190.973z"/>
		<path fill="#607D8B" fill-opacity="0" d="M21.632,205.129c-0.994,0.504-2.101,0.813-3.279,0.862L18.331,214
			c2.628-0.058,5.1-0.74,7.268-1.912L21.632,205.129z"/>
		<path fill="#607D8B" d="M31.624,206.401l-6.913-4.045c-0.625,0.959-1.442,1.773-2.407,2.391l3.984,6.945
			C28.46,210.375,30.288,208.557,31.624,206.401z"/>
		<path opacity="0.18" fill="#607D8B" enable-background="new    " d="M11.332,202.418l-6.95,3.987
			c1.327,2.144,3.144,3.947,5.295,5.261l4.037-6.914C12.769,204.153,11.951,203.354,11.332,202.418z"/>
		<path opacity="0.45" fill="#607D8B" enable-background="new    " d="M4.376,189.598l6.913,4.041
			c0.624-0.955,1.449-1.771,2.407-2.387l-3.984-6.945C7.539,185.62,5.712,187.44,4.376,189.598z"/>
		<path opacity="0.54" fill="#607D8B" enable-background="new    " d="M14.368,190.868c0.988-0.506,2.102-0.813,3.279-0.862
			l0.019-8.007c-2.625,0.056-5.096,0.738-7.263,1.91L14.368,190.868z"/>
	</g>
	<g id="_x30_5">
		<path fill="#607D8B" d="M33.997,162.448l-8.004-0.041c-0.059,1.127-0.346,2.193-0.826,3.152l6.93,4.027
			C33.245,167.448,33.927,165.03,33.997,162.448z"/>
		<path opacity="0.9" fill="#607D8B" enable-background="new    " d="M32.149,154.512l-6.961,3.971
			c0.471,0.961,0.754,2.027,0.805,3.154l8.008,0.022C33.944,159.077,33.284,156.655,32.149,154.512z"/>
		<path opacity="0.18" fill="#607D8B" enable-background="new    " d="M14.384,169.137l-4.026,6.928
			c2.146,1.166,4.588,1.857,7.183,1.932l0.047-8.004C16.441,169.934,15.354,169.629,14.384,169.137z"/>
		<path opacity="0.81" fill="#607D8B" enable-background="new    " d="M24.817,157.813l6.943-3.986
			c-1.293-2.172-3.086-4.014-5.228-5.364l-4.042,6.918C23.431,156.012,24.224,156.846,24.817,157.813z"/>
		<path opacity="0.36" fill="#607D8B" enable-background="new    " d="M10.933,165.752c-0.531-1-0.861-2.127-0.924-3.322L2,162.406
			c0.065,2.644,0.775,5.133,1.976,7.31L10.933,165.752z"/>
		<path opacity="0.45" fill="#607D8B" enable-background="new    " d="M10.904,158.305l-6.927-4.023
			c-1.202,2.183-1.914,4.679-1.977,7.328l8.006,0.047C10.058,160.448,10.375,159.315,10.904,158.305z"/>
		<path opacity="0.71" fill="#607D8B" enable-background="new    " d="M21.834,154.975l4.021-6.92
			c-2.154-1.217-4.623-1.951-7.25-2.047l-0.041,8.014C19.742,154.102,20.849,154.438,21.834,154.975z"/>
		<path opacity="0.09" fill="#607D8B" enable-background="new    " d="M21.632,169.129c-0.994,0.506-2.101,0.813-3.279,0.864
			L18.331,178c2.628-0.056,5.1-0.74,7.268-1.91L21.632,169.129z"/>
		<path fill="#607D8B" fill-opacity="0" d="M31.624,170.401l-6.913-4.043c-0.625,0.957-1.442,1.773-2.407,2.389l3.984,6.947
			C28.46,174.375,30.288,172.559,31.624,170.401z"/>
		<path opacity="0.27" fill="#607D8B" enable-background="new    " d="M11.332,166.42l-6.95,3.987
			c1.327,2.14,3.144,3.947,5.295,5.259l4.037-6.912C12.769,168.155,11.951,167.356,11.332,166.42z"/>
		<path opacity="0.54" fill="#607D8B" enable-background="new    " d="M4.376,153.6l6.913,4.041
			c0.624-0.955,1.449-1.771,2.407-2.389l-3.984-6.943C7.539,149.623,5.712,151.44,4.376,153.6z"/>
		<path opacity="0.63" fill="#607D8B" enable-background="new    " d="M14.368,154.872c0.988-0.512,2.102-0.813,3.279-0.866
			L17.666,146c-2.625,0.055-5.096,0.739-7.263,1.912L14.368,154.872z"/>
	</g>
	<g id="_x30_4">
		<path fill="#607D8B" fill-opacity="0" d="M33.997,126.449l-8.004-0.041c-0.059,1.127-0.346,2.192-0.826,3.149l6.93,4.025
			C33.245,131.449,33.927,129.026,33.997,126.449z"/>
		<path fill="#607D8B" d="M32.149,118.512l-6.961,3.973c0.471,0.957,0.754,2.025,0.805,3.152l8.008,0.023
			C33.944,123.08,33.284,120.653,32.149,118.512z"/>
		<path opacity="0.27" fill="#607D8B" enable-background="new    " d="M14.384,133.135l-4.026,6.93
			c2.146,1.166,4.588,1.859,7.183,1.931l0.047-8.004C16.441,133.932,15.354,133.629,14.384,133.135z"/>
		<path opacity="0.9" fill="#607D8B" enable-background="new    " d="M24.817,121.813l6.943-3.983
			c-1.293-2.177-3.086-4.021-5.228-5.369l-4.042,6.92C23.431,120.012,24.224,120.844,24.817,121.813z"/>
		<path opacity="0.45" fill="#607D8B" enable-background="new    " d="M10.933,129.752c-0.531-1-0.861-2.127-0.924-3.324L2,126.407
			c0.065,2.645,0.775,5.131,1.976,7.307L10.933,129.752z"/>
		<path opacity="0.54" fill="#607D8B" enable-background="new    " d="M10.904,122.303l-6.927-4.021
			c-1.202,2.18-1.914,4.676-1.977,7.327l8.006,0.048C10.058,124.448,10.375,123.315,10.904,122.303z"/>
		<path opacity="0.81" fill="#607D8B" enable-background="new    " d="M21.834,118.973l4.021-6.92
			c-2.154-1.217-4.623-1.949-7.25-2.045l-0.041,8.012C19.742,118.102,20.849,118.438,21.834,118.973z"/>
		<path opacity="0.18" fill="#607D8B" enable-background="new    " d="M21.632,133.129c-0.994,0.506-2.101,0.813-3.279,0.863
			L18.331,142c2.628-0.056,5.1-0.74,7.268-1.912L21.632,133.129z"/>
		<path opacity="0.09" fill="#607D8B" enable-background="new    " d="M31.624,134.399l-6.913-4.039
			c-0.625,0.955-1.442,1.771-2.407,2.386l3.984,6.948C28.46,138.375,30.288,136.557,31.624,134.399z"/>
		<path opacity="0.36" fill="#607D8B" enable-background="new    " d="M11.332,130.422l-6.95,3.986
			c1.327,2.141,3.144,3.944,5.295,5.258l4.037-6.912C12.769,132.151,11.951,131.356,11.332,130.422z"/>
		<path opacity="0.63" fill="#607D8B" enable-background="new    " d="M4.376,117.598l6.913,4.043
			c0.624-0.957,1.449-1.772,2.407-2.389l-3.984-6.945C7.539,113.621,5.712,115.44,4.376,117.598z"/>
		<path opacity="0.71" fill="#607D8B" enable-background="new    " d="M14.368,118.871c0.988-0.509,2.102-0.814,3.279-0.865
			L17.666,110c-2.625,0.053-5.096,0.737-7.263,1.912L14.368,118.871z"/>
	</g>
	<g id="_x30_3">
		<path opacity="0.09" fill="#607D8B" enable-background="new    " d="M33.997,90.451l-8.004-0.041
			c-0.059,1.127-0.346,2.192-0.826,3.149l6.93,4.025C33.245,95.451,33.927,93.028,33.997,90.451z"/>
		<path fill="#607D8B" fill-opacity="0" d="M32.149,82.514l-6.961,3.971c0.471,0.959,0.754,2.027,0.805,3.152l8.008,0.025
			C33.944,87.082,33.284,84.653,32.149,82.514z"/>
		<path opacity="0.36" fill="#607D8B" enable-background="new    " d="M14.384,97.137l-4.026,6.93
			c2.146,1.166,4.588,1.859,7.183,1.931l0.047-8.004C16.441,97.934,15.354,97.631,14.384,97.137z"/>
		<path fill="#607D8B" d="M24.817,85.813l6.943-3.983c-1.293-2.175-3.086-4.019-5.228-5.368l-4.042,6.92
			C23.431,84.014,24.224,84.844,24.817,85.813z"/>
		<path opacity="0.54" fill="#607D8B" enable-background="new    " d="M10.933,93.754c-0.531-1-0.861-2.129-0.924-3.324L2,90.407
			c0.065,2.645,0.775,5.133,1.976,7.309L10.933,93.754z"/>
		<path opacity="0.63" fill="#607D8B" enable-background="new    " d="M10.904,86.305l-6.927-4.022
			c-1.202,2.182-1.914,4.678-1.977,7.327l8.006,0.048C10.058,88.449,10.375,87.317,10.904,86.305z"/>
		<path opacity="0.9" fill="#607D8B" enable-background="new    " d="M21.834,82.975l4.021-6.92
			c-2.154-1.217-4.623-1.949-7.25-2.045l-0.041,8.012C19.742,82.104,20.849,82.438,21.834,82.975z"/>
		<path opacity="0.27" fill="#607D8B" enable-background="new    " d="M21.632,97.131c-0.994,0.506-2.101,0.813-3.279,0.863
			L18.331,106c2.628-0.054,5.1-0.738,7.268-1.91L21.632,97.131z"/>
		<path opacity="0.18" fill="#607D8B" enable-background="new    " d="M31.624,98.401l-6.913-4.041
			c-0.625,0.957-1.442,1.773-2.407,2.388l3.984,6.948C28.46,102.375,30.288,100.557,31.624,98.401z"/>
		<path opacity="0.45" fill="#607D8B" enable-background="new    " d="M11.332,94.422l-6.95,3.988
			c1.327,2.141,3.144,3.944,5.295,5.256l4.037-6.91C12.769,96.153,11.951,95.358,11.332,94.422z"/>
		<path opacity="0.71" fill="#607D8B" enable-background="new    " d="M4.376,81.6l6.913,4.041c0.624-0.957,1.449-1.771,2.407-2.387
			l-3.984-6.947C7.539,77.623,5.712,79.441,4.376,81.6z"/>
		<path opacity="0.81" fill="#607D8B" enable-background="new    " d="M14.368,82.871c0.988-0.506,2.102-0.813,3.279-0.863
			L17.666,74c-2.625,0.055-5.096,0.74-7.263,1.913L14.368,82.871z"/>
	</g>
	<g id="_x30_2">
		<path opacity="0.18" fill="#607D8B" enable-background="new    " d="M33.997,54.451l-8.004-0.044
			c-0.059,1.129-0.346,2.195-0.826,3.151l6.93,4.026C33.245,59.45,33.927,57.028,33.997,54.451z"/>
		<path opacity="0.09" fill="#607D8B" enable-background="new    " d="M32.149,46.514l-6.961,3.969
			c0.471,0.96,0.754,2.026,0.805,3.153l8.008,0.024C33.944,51.08,33.284,48.653,32.149,46.514z"/>
		<path opacity="0.45" fill="#607D8B" enable-background="new    " d="M14.384,61.137l-4.026,6.926
			c2.146,1.169,4.588,1.859,7.183,1.934l0.047-8.005C16.441,61.932,15.354,61.631,14.384,61.137z"/>
		<path fill="#607D8B" fill-opacity="0" d="M24.817,49.812l6.943-3.983c-1.293-2.175-3.086-4.018-5.228-5.366l-4.042,6.918
			C23.431,48.013,24.224,48.844,24.817,49.812z"/>
		<path opacity="0.63" fill="#607D8B" enable-background="new    " d="M10.933,57.751c-0.531-1-0.861-2.127-0.924-3.322L2,54.405
			c0.065,2.647,0.775,5.135,1.976,7.312L10.933,57.751z"/>
		<path opacity="0.71" fill="#607D8B" enable-background="new    " d="M10.904,50.304L3.978,46.28
			c-1.202,2.183-1.914,4.679-1.977,7.329l8.006,0.045C10.058,52.449,10.375,51.313,10.904,50.304z"/>
		<path fill="#607D8B" d="M21.834,46.975l4.021-6.92c-2.154-1.217-4.623-1.949-7.25-2.045l-0.041,8.012
			C19.742,46.103,20.849,46.437,21.834,46.975z"/>
		<path opacity="0.36" fill="#607D8B" enable-background="new    " d="M21.632,61.13c-0.994,0.505-2.101,0.813-3.279,0.863
			l-0.021,8.006c2.628-0.054,5.1-0.738,7.268-1.911L21.632,61.13z"/>
		<path opacity="0.27" fill="#607D8B" enable-background="new    " d="M31.624,62.401l-6.913-4.042
			c-0.625,0.956-1.442,1.773-2.407,2.39l3.984,6.946C28.46,66.375,30.288,64.557,31.624,62.401z"/>
		<path opacity="0.54" fill="#607D8B" enable-background="new    " d="M11.332,58.421l-6.95,3.987
			c1.327,2.141,3.144,3.947,5.295,5.26l4.037-6.912C12.769,60.153,11.951,59.356,11.332,58.421z"/>
		<path opacity="0.81" fill="#607D8B" enable-background="new    " d="M4.376,45.6l6.913,4.041c0.624-0.956,1.449-1.771,2.407-2.389
			l-3.984-6.945C7.539,41.622,5.712,43.439,4.376,45.6z"/>
		<path opacity="0.9" fill="#607D8B" enable-background="new    " d="M14.368,46.871c0.988-0.508,2.102-0.813,3.279-0.864
			l0.019-8.008c-2.625,0.055-5.096,0.739-7.263,1.912L14.368,46.871z"/>
	</g>
	<g id="_x30_1">
		<path opacity="0.27" fill="#607D8B" enable-background="new    " d="M33.997,18.451l-8.004-0.043
			c-0.059,1.127-0.346,2.194-0.826,3.151l6.93,4.026C33.245,23.451,33.927,21.028,33.997,18.451z"/>
		<path opacity="0.18" fill="#607D8B" enable-background="new    " d="M32.149,10.514l-6.961,3.969
			c0.471,0.958,0.754,2.027,0.805,3.154l8.008,0.022C33.944,15.08,33.284,12.653,32.149,10.514z"/>
		<path opacity="0.54" fill="#607D8B" enable-background="new    " d="M14.384,25.137l-4.026,6.927
			c2.146,1.168,4.588,1.859,7.183,1.933l0.047-8.006C16.441,25.932,15.354,25.629,14.384,25.137z"/>
		<path opacity="0.09" fill="#607D8B" enable-background="new    " d="M24.817,13.812l6.943-3.983
			c-1.293-2.174-3.086-4.018-5.228-5.366l-4.042,6.917C23.431,12.014,24.224,12.844,24.817,13.812z"/>
		<path opacity="0.71" fill="#607D8B" enable-background="new    " d="M10.933,21.752c-0.531-1.001-0.861-2.127-0.924-3.323
			L2,18.405c0.065,2.646,0.775,5.135,1.976,7.312L10.933,21.752z"/>
		<path opacity="0.81" fill="#607D8B" enable-background="new    " d="M10.904,14.304L3.978,10.28
			c-1.202,2.184-1.914,4.677-1.977,7.329l8.006,0.045C10.058,16.449,10.375,15.314,10.904,14.304z"/>
		<path fill="#607D8B" fill-opacity="0" d="M21.834,10.973l4.021-6.918c-2.154-1.217-4.623-1.949-7.25-2.045l-0.041,8.01
			C19.742,10.103,20.849,10.437,21.834,10.973z"/>
		<path opacity="0.45" fill="#607D8B" enable-background="new    " d="M21.632,25.128c-0.994,0.507-2.101,0.813-3.279,0.866
			L18.331,34c2.628-0.054,5.1-0.738,7.268-1.911L21.632,25.128z"/>
		<path opacity="0.36" fill="#607D8B" enable-background="new    " d="M31.624,26.401l-6.913-4.042
			c-0.625,0.957-1.442,1.774-2.407,2.39l3.984,6.944C28.46,30.375,30.288,28.557,31.624,26.401z"/>
		<path opacity="0.63" fill="#607D8B" enable-background="new    " d="M11.332,22.421l-6.95,3.987
			c1.327,2.141,3.144,3.947,5.295,5.26l4.037-6.914C12.769,24.153,11.951,23.356,11.332,22.421z"/>
		<path opacity="0.9" fill="#607D8B" enable-background="new    " d="M4.376,9.599l6.913,4.042c0.624-0.957,1.449-1.771,2.407-2.389
			L9.712,4.307C7.539,5.622,5.712,7.44,4.376,9.599z"/>
		<path fill="#607D8B" d="M14.368,10.871c0.988-0.51,2.102-0.813,3.279-0.864l0.019-8.008c-2.625,0.055-5.096,0.737-7.263,1.911
			L14.368,10.871z"/>
	</g>
	<rect y="0" fill="#607D8B" fill-opacity="0" width="36" height="432"/>
</g>
</svg>
